<?xml version="1.0" encoding="UTF-8"?>
<!DOCTYPE svg PUBLIC "-//W3C//DTD SVG 1.1//EN" "http://www.w3.org/Graphics/SVG/1.1/DTD/svg11.dtd">
<!-- Creator: CorelDRAW 2019 (64-Bit) -->
<svg xmlns="http://www.w3.org/2000/svg" xml:space="preserve" width="21.3075mm" height="12.6091mm" version="1.1" style="shape-rendering:geometricPrecision; text-rendering:geometricPrecision; image-rendering:optimizeQuality; fill-rule:evenodd; clip-rule:evenodd"
viewBox="0 0 186.92 110.62"
 xmlns:xlink="http://www.w3.org/1999/xlink">
 <defs>
  <style type="text/css">
   <![CDATA[
    .fil4 {fill:none}
    .fil1 {fill:#FEFEFE}
    .fil2 {fill:#492D36}
    .fil0 {fill:#373435;fill-rule:nonzero}
    .fil3 {fill:url(#id0)}
   ]]>
  </style>
  <linearGradient id="id0" gradientUnits="userSpaceOnUse" x1="103.83" y1="69.95" x2="95.29" y2="41.04">
   <stop offset="0" style="stop-opacity:1; stop-color:#9D325E"/>
   <stop offset="1" style="stop-opacity:1; stop-color:#EC268F"/>
  </linearGradient>
 </defs>
 <g id="Capa_x0020_1">
  <metadata id="CorelCorpID_0Corel-Layer"/>
  <g id="_1624843406160">
   <path class="fil0" d="M6.12 0l8.12 0c2.34,0 4.35,0.81 6.03,2.44 1.68,1.62 2.52,3.6 2.52,5.94 0,2.4 -0.82,4.37 -2.44,5.94 -0.97,0.93 -2.15,1.66 -3.54,2.17 -0.42,0.15 -1.25,0.27 -2.48,0.37 -1.24,0.1 -2.24,0.15 -3.01,0.15 -0.18,0 -0.29,0 -0.33,0l0.07 10.52 -4.93 0 0 -27.53zm4.93 12.01l3.46 0c0.93,0 1.73,-0.35 2.37,-1.03 0.65,-0.69 0.98,-1.51 0.98,-2.48 0,-0.97 -0.32,-1.8 -0.98,-2.51 -0.65,-0.71 -1.46,-1.06 -2.43,-1.06l-3.4 0 0 7.07zm14.64 -4.64l4.67 0 0 20.26 -4.67 0 0 -20.26zm2.39 -1.35c-0.88,0 -1.57,-0.29 -2.07,-0.85 -0.5,-0.56 -0.75,-1.23 -0.75,-2 0,-0.75 0.24,-1.39 0.73,-1.92 0.49,-0.53 1.18,-0.79 2.08,-0.79 0.81,0 1.46,0.29 1.95,0.88 0.44,0.53 0.66,1.17 0.66,1.92 0,0.73 -0.24,1.37 -0.7,1.93 -0.47,0.55 -1.11,0.83 -1.91,0.83zm5.66 21.68l0 -12.18c0,-2.65 0.95,-4.91 2.87,-6.79 1.91,-1.87 4.21,-2.81 6.9,-2.81 2.63,0 4.88,0.94 6.75,2.82 1.86,1.88 2.8,4.14 2.8,6.79l0 12.16 -4.97 0 0 -12.31c0,-1.24 -0.48,-2.3 -1.44,-3.16 -0.96,-0.87 -2.09,-1.3 -3.38,-1.3 -1.24,0 -2.32,0.42 -3.22,1.27 -0.9,0.85 -1.36,1.89 -1.36,3.11l0 12.39 -4.93 0zm35.51 -5.36l0 4.9c-0.88,0.22 -1.77,0.33 -2.69,0.33 -3.02,0 -5.59,-1.07 -7.71,-3.21 -2.12,-2.13 -3.18,-4.72 -3.18,-7.75 0,-2.98 1.06,-5.5 3.2,-7.56 2.13,-2.07 4.7,-3.1 7.72,-3.1 0.81,0 1.66,0.12 2.55,0.36l0 4.8c-0.75,-0.35 -1.57,-0.52 -2.47,-0.52 -1.66,0 -3.11,0.55 -4.35,1.64 -1.32,1.17 -1.97,2.65 -1.97,4.46 0,1.84 0.66,3.35 1.97,4.54 1.22,1.11 2.68,1.67 4.35,1.67 0.91,0 1.77,-0.19 2.58,-0.56zm19.71 -6.94c-0.4,-1.46 -1.16,-2.61 -2.29,-3.43 -1.12,-0.83 -2.46,-1.24 -4,-1.24 -1.72,0 -3.21,0.62 -4.47,1.85 -1.27,1.23 -1.9,2.69 -1.9,4.37 0,0.29 0.01,0.51 0.03,0.66 0.2,1.81 0.96,3.24 2.27,4.28 1.17,0.93 2.56,1.4 4.17,1.4 0.92,0 1.77,-0.16 2.58,-0.49 0.81,-0.32 1.49,-0.81 2.06,-1.45l3.12 3.25c-1.11,1.13 -2.29,1.95 -3.51,2.46 -1.22,0.51 -2.64,0.77 -4.25,0.77 -3.01,0 -5.6,-1.04 -7.76,-3.12 -2.17,-2.09 -3.25,-4.62 -3.25,-7.6 0,-3.02 1.05,-5.59 3.14,-7.72 2.09,-2.13 4.64,-3.2 7.63,-3.2 3.02,0 5.66,1.12 7.91,3.36 2.26,2.24 3.39,4.86 3.39,7.84 0,0.33 0,0.65 0,0.96 -0.05,0.27 -0.09,0.48 -0.11,0.6l-15.44 0c-0.33,0 -0.54,-0.14 -0.63,-0.41 -0.09,-0.27 -0.14,-0.65 -0.14,-1.12 -0.01,-0.2 -0.01,-0.35 0,-0.44 -0.01,-0.24 -0.01,-0.42 0,-0.55 0,-0.34 0.04,-0.6 0.11,-0.78 0.07,-0.17 0.25,-0.26 0.52,-0.26l10.82 0zm7.52 -15.16l4.67 0 0 27.4 -4.67 0 0 -27.4z"/>
   <path class="fil1" d="M8.26 0.54l0 25.67 0.64 0 -0.05 -9.24c-0,-0.65 0.21,-1.22 0.62,-1.68 0.42,-0.46 0.93,-0.7 1.52,-0.7 0.11,0 0.22,0 0.33,0 0.94,0 1.9,-0.07 2.84,-0.16 0.49,-0.04 1.47,-0.11 1.93,-0.28 1.04,-0.42 1.99,-1.02 2.79,-1.87 1.26,-1.34 1.79,-2.94 1.79,-4.86 0,-1.94 -0.61,-3.51 -1.87,-4.86 -1.29,-1.37 -2.76,-2.03 -4.55,-2.03l-5.98 0zm0.66 10.89l0 -7.81c0,-1.3 0.96,-2.36 2.14,-2.36l3.4 0c1.56,0 2.94,0.66 4,1.93 1.02,1.22 1.54,2.71 1.54,4.37 0,1.66 -0.53,3.15 -1.56,4.36 -1.05,1.22 -2.4,1.87 -3.93,1.87l-3.46 0c-1.18,0 -2.14,-1.06 -2.14,-2.36zm18.91 -2.76l0 17.65 0.39 0 0 -17.65 -0.39 0zm0.25 -6.21c0.1,0 0.21,0.01 0.28,-0.08 0.14,-0.19 0.2,-0.36 0.2,-0.61 0,-0.22 -0.03,-0.42 -0.16,-0.6 -0.09,-0.12 -0.17,-0.13 -0.32,-0.13 -0.11,0 -0.42,0.01 -0.51,0.12 -0.13,0.16 -0.16,0.31 -0.16,0.52 0,0.26 0.06,0.45 0.21,0.65 0.1,0.13 0.32,0.14 0.46,0.14zm7.8 23.93l0.66 0 0 -11.32c0,-2.01 0.71,-3.78 2.03,-5.16 1.3,-1.35 2.9,-2.04 4.69,-2.04 1.82,0 3.46,0.69 4.82,2.04 1.39,1.38 2.15,3.17 2.15,5.24l0 11.23 0.69 0 0 -11.06c0,-2.3 -0.71,-4.2 -2.18,-5.84 -1.46,-1.62 -3.16,-2.42 -5.23,-2.42 -2.12,0 -3.89,0.79 -5.4,2.43 -1.49,1.62 -2.23,3.5 -2.23,5.81l0 11.08zm31.24 -0.59c-0.15,0.01 -0.29,0.01 -0.44,0.01 -2.2,0 -4.16,-0.82 -5.79,-2.45 -1.79,-1.79 -2.68,-4.1 -2.68,-6.76 0,-2.64 0.9,-4.94 2.7,-6.69 1.63,-1.59 3.59,-2.4 5.77,-2.4 0.11,0 0.22,0 0.33,0.01l0 -0.39c-0.14,-0.01 -0.27,-0.01 -0.41,-0.01 -2.43,0 -4.48,0.88 -6.23,2.75 -1.72,1.84 -2.55,4.01 -2.55,6.65 0,2.71 0.83,4.97 2.56,6.89 1.72,1.91 3.75,2.84 6.19,2.84 0.18,0 0.37,-0.01 0.55,-0.02l0 -0.43zm23.46 -9.07l1.11 0c-0.14,-2.49 -1.1,-4.55 -2.74,-6.35 -1.79,-1.97 -3.87,-3.02 -6.4,-3.02 -2.41,0 -4.41,0.92 -6.1,2.82 -1.71,1.93 -2.53,4.18 -2.53,6.88 0,2.66 0.86,4.84 2.59,6.69 1.77,1.88 3.82,2.79 6.28,2.79 1.16,0 2.35,-0.17 3.43,-0.66 0.42,-0.2 0.83,-0.44 1.21,-0.72l-0.18 -0.21c-0.34,0.23 -0.7,0.42 -1.08,0.59 -1.08,0.48 -2.21,0.71 -3.37,0.71 -2.03,0 -3.91,-0.66 -5.5,-2.06 -1.82,-1.59 -2.81,-3.78 -3.07,-6.31 -0.03,-0.33 -0.04,-0.66 -0.04,-0.99 0,-2.54 0.9,-4.75 2.55,-6.52 1.65,-1.77 3.67,-2.72 5.97,-2.72 1.92,0 3.72,0.57 5.27,1.83 1.56,1.27 2.57,3.01 3.08,5.07 0.18,0.73 0.06,1.45 -0.36,2.05 -0.03,0.04 -0.06,0.09 -0.1,0.13zm8.06 -15.94l0 25.53 0.39 0 0 -25.53 -0.39 0z"/>
   <path class="fil2" d="M69.75 74.08c-0.02,0.13 -0.05,0.25 -0.07,0.38 -0.64,3.35 -2.05,7.06 -5.09,8.94 -1.31,0.81 -2.78,1.19 -4.32,1.19 -2.06,0 -3.99,-0.52 -5.69,-1.69 -3.14,-2.15 -4.85,-5.99 -5.73,-9.91 -0.08,1.21 -0.18,2.41 -0.3,3.62 -0.13,1.41 -0.29,2.82 -0.39,4.23 -0.14,1.88 -0.23,4.09 0.48,5.87 1.07,2.69 4.08,4.34 6.56,5.51 0.41,0.2 0.65,0.61 0.61,1.07 -0.04,0.46 -0.34,0.82 -0.79,0.94 -2.77,0.76 -5.72,0.83 -8.15,-0.9 -4.37,-3.11 -5.12,-10.86 -5.49,-15.78 -0.21,-2.81 -0.3,-5.63 -0.51,-8.45 -0.1,-1.26 -0.23,-2.88 -0.54,-4.31 -0.43,0.4 -0.87,0.8 -1.29,1.19 -1.29,1.18 -2.59,2.34 -3.9,3.5 -0.04,0.03 -0.08,0.07 -0.11,0.1 -0.18,3.84 -0.35,7.71 -0.29,11.56 0.01,0.47 0.06,0.98 0.09,1.45 0.07,1.08 0.14,2.16 0.21,3.25 0.2,3.14 0.39,6.28 0.54,9.42 0.16,3.25 0.3,6.53 0.29,9.79 -0,1.1 -0.02,2.25 -0.14,3.35 -0.09,0.85 -0.27,2.08 -1.33,2.22 -0.51,0.07 -0.95,-0.19 -1.24,-0.59 -0.17,-0.24 -0.31,-0.52 -0.42,-0.79 -0.08,-0.19 -0.1,-0.39 -0.07,-0.57l-3.29 -13c-0.01,-0.02 -0.01,-0.04 -0.01,-0.06 -0.61,-3.18 -0.97,-6.47 -1.27,-9.7 -0.04,-0.43 -0.08,-0.87 -0.12,-1.3 -0.47,4.94 -2.06,10.97 -7.12,12.32 -3.12,0.83 -6.42,-0.51 -8.97,-2.25 -3.06,-2.08 -5.71,-5.12 -7.59,-8.3 -1.14,-1.93 -2.07,-4.01 -2.65,-6.17 -2.07,-7.66 -2.86,-17.35 1.94,-24.22 1.58,-2.26 3.74,-4.1 6.34,-5.07 2.29,-0.85 4.81,-0.97 7.13,-0.2 2.88,0.97 5,3.14 6.15,5.92 1.16,2.81 1.27,5.96 0.83,8.98 0.89,-0.63 1.77,-1.35 2.61,-2.04 -0.31,-5.46 -0.62,-10.95 -1.18,-16.39 -0.23,-2.21 -0.49,-4.43 -0.88,-6.62 -0.26,-1.44 -0.58,-3.04 -1.11,-4.41 -1.63,-2.34 -1.1,-5.57 1.21,-7.28 2.35,-1.73 5.67,-1.23 7.4,1.13 0.06,0.08 0.1,0.15 0.13,0.24 3.18,8.06 3.53,17.76 3.34,26.5 2.52,-1.57 5.71,-3.04 8.4,-2.16 2.26,0.74 3.45,2.84 4.11,4.99 0.03,0.09 0.06,0.18 0.08,0.27 0.19,-2.2 0.54,-4.38 1.07,-6.37 0.01,-0.04 0.02,-0.07 0.03,-0.1 1.01,-2.74 4.06,-4.14 6.8,-3.12 2.73,1.01 4.13,4.05 3.13,6.78 -1.2,3.68 -2.23,7.82 -1.62,11.7 0.39,2.49 1.41,4.63 2.95,6.55 0.16,-0.25 0.29,-0.52 0.36,-0.69 0.47,-1.05 0.77,-2.28 0.98,-3.4 0.61,-3.2 0.74,-6.73 0.58,-9.98 -0.15,-3.04 -0.58,-6.38 -1.59,-9.26 -0.61,-1.73 -1.74,-4.13 -3.58,-4.82 -1.58,-0.59 -3.31,0.27 -4.59,1.16 -0.32,0.22 -0.7,0.26 -1.05,0.1 -0.35,-0.16 -0.58,-0.47 -0.63,-0.85 -0.23,-1.9 0.65,-3.39 2.25,-4.37 1.43,-0.88 3.03,-1.33 4.71,-1.09 3.51,0.51 6.05,3.81 7.64,6.72 1.33,2.44 2.35,5.2 3.08,7.99 0.48,-1.72 1.21,-3.34 2.24,-4.82 1.35,-1.93 3.19,-3.49 5.41,-4.32 1.96,-0.73 4.12,-0.83 6.11,-0.17 2.19,0.73 3.85,2.27 4.89,4.26 0.17,-2.58 0.54,-5.16 1.16,-7.5 0.01,-0.04 0.02,-0.06 0.03,-0.1 1.01,-2.74 4.07,-4.14 6.8,-3.12 2.73,1.01 4.13,4.05 3.13,6.78 -1.2,3.68 -2.23,7.82 -1.62,11.7 0.39,2.49 1.41,4.63 2.95,6.55 0.16,-0.25 0.29,-0.52 0.36,-0.69 0.47,-1.05 0.77,-2.28 0.98,-3.4 0.61,-3.2 0.74,-6.73 0.58,-9.98 -0.15,-3.04 -0.58,-6.38 -1.59,-9.26 -0.6,-1.73 -1.74,-4.13 -3.58,-4.82 -1.58,-0.59 -3.31,0.27 -4.59,1.16 -0.32,0.22 -0.7,0.26 -1.05,0.1 -0.35,-0.16 -0.58,-0.47 -0.63,-0.85 -0.23,-1.9 0.65,-3.39 2.25,-4.37 1.43,-0.88 3.03,-1.33 4.71,-1.09 3.51,0.51 6.05,3.81 7.64,6.72 1.84,3.37 3.08,7.35 3.8,11.19 -0.11,-1.27 -0.22,-2.53 -0.32,-3.8 -0.4,-5.02 -0.7,-10.05 -1.1,-15.07 -0.16,-2.07 -0.34,-4.13 -0.59,-6.19 -0.18,-1.49 -0.38,-3.04 -0.72,-4.5 -0.85,-2.78 0.7,-5.72 3.47,-6.59 2.79,-0.88 5.76,0.67 6.63,3.46 0.01,0.05 0.03,0.09 0.03,0.14 0.27,1.58 0.41,3.2 0.53,4.79 0.15,2.03 0.23,4.07 0.3,6.1 0.15,4.8 0.18,9.62 0.2,14.43 0.03,6.1 0,12.22 0.22,18.31 0.08,2.15 0.18,4.35 0.43,6.49 0.05,0.42 0.19,1.51 0.4,2.27 0.11,-0.08 0.21,-0.16 0.28,-0.22 0.65,-0.5 1.28,-1.03 1.91,-1.56 0.63,-0.53 1.26,-1.07 1.89,-1.6 0.43,-0.36 0.89,-0.77 1.36,-1.08 0.3,-0.2 0.66,-0.24 0.98,-0.12 -3.24,-2.57 -5.4,-6.09 -5.66,-10.65 -0.14,-2.36 0.26,-4.73 1.04,-6.95 1.17,-3.38 3.3,-6.66 6,-9.02 1.05,-0.92 2.27,-1.76 3.6,-2.35 -2.17,0.08 -4.26,-1.19 -5.11,-3.31 -1.08,-2.69 0.23,-5.77 2.9,-6.87 5.26,-2.48 10.55,-4.97 15.94,-7.18 -0.12,-1.23 -0.26,-2.45 -0.43,-3.67 -0.16,-1.13 -0.34,-2.27 -0.59,-3.38 -0.91,-2.98 0.75,-6.15 3.73,-7.08 2.99,-0.94 6.18,0.72 7.13,3.72 0.02,0.05 0.03,0.09 0.04,0.14 0.36,2.11 0.54,4.32 0.66,6.49 0.81,-0.24 1.62,-0.48 2.43,-0.69 4.48,-1.21 9.01,-2.03 13.63,-2.49 5.33,-0.52 10.71,-0.56 16.06,-0.33 0.53,0.02 0.95,0.42 1.02,0.94 0.07,0.52 -0.25,1.01 -0.75,1.16 -5.22,1.58 -10.45,3.13 -15.66,4.74 -3.96,1.23 -7.91,2.51 -11.79,3.99 -1.55,0.59 -3.08,1.2 -4.6,1.85 0.08,4 0.1,7.99 0.12,11.99 0.03,6.66 0,13.36 0.24,20.02 0.08,2.35 0.19,4.76 0.47,7.1 0.06,0.51 0.23,1.79 0.47,2.64 0.16,-0.12 0.31,-0.24 0.42,-0.33 0.71,-0.55 1.4,-1.13 2.09,-1.7 0.69,-0.58 1.37,-1.17 2.06,-1.74 0.47,-0.39 0.97,-0.83 1.48,-1.18 0.38,-0.26 0.87,-0.25 1.24,0.02 0.37,0.28 0.53,0.74 0.39,1.18 -0.55,1.81 -1.41,3.73 -2.38,5.35 -1.14,1.9 -2.89,4.09 -5.21,4.49 -0.38,0.07 -0.77,0.08 -1.16,0.04 -2.01,-0.2 -3.37,-1.83 -4.28,-3.49 -1.2,-2.19 -1.95,-4.94 -2.5,-7.37 -0.74,-3.27 -1.23,-6.64 -1.63,-9.97 -0.45,-3.76 -0.79,-7.54 -1.09,-11.31 -0.29,-3.67 -0.54,-7.34 -0.8,-11.01 -4.09,2.08 -8.11,4.28 -12.11,6.52 0.81,-0.13 1.64,-0.14 2.47,0.01 2.2,0.39 3.86,1.79 5.04,3.63 1.64,2.56 2.35,5.94 2.68,8.92 0.01,0.04 0.01,0.08 0.01,0.12 0,1.3 -0.47,2.54 -1.33,3.51 -0.02,0.86 -0.05,1.71 -0.07,2.57 -0.06,2.68 -0.06,5.52 0.71,8.1 1.18,3.98 3.96,6.36 7.68,7.99 0.42,0.18 0.66,0.58 0.64,1.04 -0.02,0.45 -0.3,0.83 -0.74,0.97 -1.58,0.53 -1.67,0.73 -3.42,0.37 -4.2,-0.86 -6.92,-3.53 -8.62,-7.1 -0.74,1.11 -1.68,2.07 -2.91,2.59 -1.57,0.67 -3.22,0.46 -4.75,-0.2 -1.56,-0.67 -3.01,-1.48 -4.3,-2.44 0.19,0.27 0.25,0.61 0.15,0.94 -0.51,1.66 -1.29,3.43 -2.19,4.91 -1.06,1.77 -2.68,3.78 -4.83,4.15 -0.36,0.06 -0.72,0.08 -1.08,0.04 -3.97,-0.39 -5.58,-6.88 -6.28,-10.01 -0.59,-2.62 -1.01,-5.3 -1.35,-7.98 0.04,2.28 -0.11,4.57 -0.52,6.74 -0.64,3.35 -2.05,7.06 -5.09,8.94 -1.32,0.81 -2.78,1.19 -4.32,1.19 -2.06,0 -3.99,-0.52 -5.69,-1.69 -3.42,-2.34 -5.13,-6.68 -5.95,-10.94 -0.09,0.34 -0.18,0.68 -0.28,1.02 -0.01,0.04 -0.02,0.07 -0.04,0.11 -0.55,1.3 -1.58,2.31 -2.89,2.84 -1.3,0.53 -2.75,0.51 -4.05,-0.03 -1.3,-0.55 -2.31,-1.58 -2.84,-2.89 -0.52,-1.3 -0.52,-2.74 0.03,-4.03 0.27,-0.7 0.65,-1.61 0.66,-2.36 0,-0.23 -0.03,-0.44 -0.09,-0.64 -0.2,0.22 -0.37,0.54 -0.46,0.73 -0.42,0.88 -0.64,1.99 -0.77,2.94 -0.41,2.86 -0.26,6.08 0.15,8.93 0.37,2.55 1.02,5.33 2.14,7.66 0.71,1.48 1.9,3.36 3.57,3.85 0.86,0.26 1.72,0.1 2.51,-0.25 0.59,-0.33 2.04,-3.1 2.39,-3.77 0.62,-1.17 1.23,-2.42 1.95,-3.53 0.27,-0.41 0.76,-0.59 1.22,-0.44 0.47,0.15 0.77,0.57 0.75,1.06 -0.13,4.42 -1.1,11.35 -6.25,12.71 -2.68,0.71 -5.49,-0.42 -7.68,-1.92 -2.59,-1.77 -4.84,-4.34 -6.43,-7.03 -0.68,-1.15 -1.27,-2.37 -1.74,-3.63zm-42.06 6.99c-0.13,-1.74 -0.24,-3.47 -0.35,-5.21 -2.5,0.84 -5.3,-0.31 -6.46,-2.75 -0.07,-0.14 -0.13,-0.29 -0.18,-0.44 -1.65,1.04 -3.75,1.25 -5.63,0.46 -1.49,-0.63 -2.66,-1.82 -3.27,-3.32 -0.61,-1.5 -0.59,-3.16 0.03,-4.65 0.33,-0.86 0.79,-1.95 0.8,-2.88 0,-0.41 -0.07,-0.77 -0.22,-1.12 -0.37,0.25 -0.67,0.79 -0.83,1.13 -0.5,1.07 -0.77,2.4 -0.94,3.56 -0.49,3.42 -0.31,7.28 0.18,10.69 0.44,3.06 1.23,6.38 2.57,9.18 0.87,1.82 2.32,4.09 4.38,4.7 1.07,0.32 2.14,0.13 3.14,-0.31 0.32,-0.15 0.97,-1.13 1.16,-1.43 0.64,-1 1.21,-2.08 1.77,-3.14 0.73,-1.39 1.46,-2.88 2.32,-4.19 0.27,-0.41 0.76,-0.59 1.22,-0.44 0.11,0.04 0.22,0.09 0.31,0.16zm136.62 -35.48c1.62,-1.9 3.82,-4.28 4.62,-6.85 -0.53,0.41 -1.02,0.87 -1.42,1.29 -1.24,1.27 -2.35,2.76 -3.24,4.3 -1.42,2.44 -3.07,6.46 -1.76,9.25 0.64,1.38 1.9,2.15 3.31,2.58 0.44,0.14 0.88,0.17 1.34,0.12 2.06,-0.23 4.31,-2.35 5.96,-3.54 0.38,-0.28 0.88,-0.28 1.27,0 0.38,0.28 0.54,0.75 0.39,1.21 -1.56,4.74 -4.63,8.37 -10.05,7.68 -3.1,-0.39 -5.9,-1.68 -7.7,-4.31 -1.63,-2.38 -2.07,-5.36 -1.89,-8.19 0.2,-3.11 1.14,-6.27 2.45,-9.08 1.4,-2.99 3.37,-5.93 5.82,-8.17 2.15,-1.97 4.89,-3.57 7.89,-3.56 0.43,0 0.86,0.03 1.28,0.1 2.09,0.33 3.99,1.23 5.15,3.06 2.19,3.47 0.67,8.74 -0.74,12.24 -0.74,1.83 -1.62,3.62 -2.58,5.34 -0.74,1.32 -1.56,2.65 -2.46,3.87 -0.03,0.05 -0.06,0.08 -0.1,0.12 -2.07,2.07 -5.42,2.07 -7.48,0 -2.06,-2.06 -2.07,-5.38 -0.03,-7.45zm-32.75 3.47c-0.03,-0.62 -0.01,-1.27 -0.07,-1.9 -0.4,0.28 -0.77,0.62 -1.03,0.89 -0.86,0.91 -1.53,2.04 -1.89,3.24 -0.43,1.46 -0.39,2.94 0.09,4.38 0.54,1.61 1.57,3.03 2.76,4.24 0.15,-0.47 0.28,-0.96 0.38,-1.36 0.35,-1.35 0.62,-2.74 0.88,-4.11 0.11,-0.59 0.22,-1.18 0.33,-1.76 -0.93,-0.97 -1.46,-2.26 -1.46,-3.62z"/>
   <path class="fil3" d="M31.2 30.65c3.2,8.12 3.51,18.18 3.21,28.15 7.2,-5.06 14.39,-6.94 13.45,12.47 -0.61,12.72 -3.66,16.96 6.87,21.92 -15.93,4.38 -10.77,-22.86 -13.89,-30.42 -1,1.06 -3.97,3.75 -6.87,6.3 -0.2,4.23 -0.37,8.31 -0.31,12.08 0.02,1.3 2.47,33.58 0.06,27.66l0.01 -0.03 0.06 -0.01 -3.39 -13.39c-1.03,-5.32 -1.62,-13.12 -2.11,-21.41 -0.4,0.34 -0.69,0.57 -0.83,0.67 -2.1,1 -4.62,0.11 -5.62,-2 -0.32,-0.68 -0.45,-1.41 -0.4,-2.11 -1.35,1.8 -3.8,2.52 -5.97,1.6 -2.55,-1.08 -3.74,-4.03 -2.66,-6.58 0.77,-2 1.41,-3.6 0.2,-5.51 0.01,-0.05 0.01,-0.02 0.05,-0.07l-0.01 -0.02c-6.96,-0.92 -4.42,36.68 8.27,31.13 1.57,-0.69 4.04,-6.58 5.72,-9.15 -0.74,24.96 -20.57,12.07 -24.38,-2.04 -9.4,-34.75 26.07,-36.89 19.76,-11.78 0.38,-0.45 0.85,-0.82 1.42,-1.09 1.09,-0.7 2.43,-1.77 3.89,-2.97 -0.68,-12.15 -1.45,-23.66 -3.32,-28.42 -1.38,-1.88 -0.98,-4.51 0.9,-5.89 1.88,-1.38 4.51,-0.98 5.89,0.9zm96.53 -2.76c6.16,-2.91 11.55,-5.41 16.66,-7.48 -0.31,-3.29 -0.67,-6.07 -1.13,-8.03 -0.76,-2.43 0.59,-5.01 3.01,-5.78 2.43,-0.76 5.01,0.59 5.78,3.01 0.34,1.99 0.57,4.65 0.73,7.75 9.76,-3.1 19.51,-4.46 33.07,-3.87 -15.46,4.69 -23.5,6.88 -32.83,10.9 0.38,17.28 -0.33,40.76 1.8,43.72 0.07,0.09 0.13,0.16 0.2,0.24 1.24,-0.52 5.92,-4.81 7.05,-5.58 -0.81,2.66 -3.71,9.51 -7.61,9.12 -6.91,-0.68 -8.12,-25.56 -9.44,-43.77 -4.03,2.02 -8.59,4.46 -14.14,7.58 -2.16,0.87 -4.62,-0.18 -5.48,-2.34 -0.87,-2.16 0.18,-4.62 2.34,-5.48zm27.25 40.48c-0.08,-0.01 -0.14,-0.02 -0.2,0.03 0.04,0.01 0.11,0 0.2,-0.03zm-57.58 -20.9c-2.41,7.38 -3.24,14.12 2.25,20.14l-0.04 0.03 0.01 0.03c5.12,-2.32 5.22,-38.89 -8.33,-29.48 -0.18,-1.46 0.49,-2.55 1.74,-3.32 13.76,-8.42 23.05,39.37 6.49,39.41 -12.25,0.03 -12.45,-20.54 -10.03,-29.75 0.81,-2.18 3.24,-3.3 5.42,-2.49 2.18,0.81 3.3,3.24 2.49,5.42zm67.69 -1.15c2.24,-2.63 5.28,-5.89 5.2,-9.65 -5.55,2.12 -15.05,17.35 -4.81,20.51 3.09,0.96 5.89,-1.87 8.24,-3.58 -1.39,4.23 -4.01,7.57 -8.89,6.95 -17.81,-2.26 -4.63,-33.03 7.54,-31.08 11.03,1.77 2.12,18.14 -1.32,22.81 -1.65,1.65 -4.32,1.65 -5.96,0 -1.65,-1.65 -1.65,-4.32 -0,-5.96zm6.03 -9.87c0.08,0.01 0.17,0 0.25,-0.02 -0.08,0 -0.17,0.01 -0.25,0.02zm-38.5 12.58c-0.07,-1.32 0.04,-2.26 -0.4,-3.41 -2.87,0.66 -9.5,8.28 -0.41,16.13 0.93,-1.61 1.7,-5.88 2.37,-9.45 -0.95,-0.77 -1.56,-1.95 -1.56,-3.27zm-0.16 -3.45c0.05,0.01 0.1,0.01 0.14,-0.01 -0.05,0 -0.09,0 -0.14,0.01zm-1.01 16.64c-0.09,0.04 -0.18,0.09 -0.27,0.17 0.09,-0.03 0.18,-0.08 0.27,-0.17zm3.42 -13.37l0.01 -0.06 -0.03 -0.11 0.01 0.17zm4.86 3.24c-0.15,7.53 -1.22,15.62 8.95,20.09 -1.46,0.49 -1.34,0.65 -2.86,0.34 -4.79,-0.98 -7.31,-4.5 -8.7,-8.58 -1.44,3.37 -3.73,5.51 -7.37,3.94 -26.22,-11.32 7.93,-49.59 11.3,-18.85 0,1.21 -0.51,2.3 -1.32,3.06zm-24.76 -33.69c2.01,11.88 -0.1,49.87 2.54,53.53 0.06,0.09 0.12,0.15 0.19,0.22 1.13,-0.47 5.42,-4.4 6.45,-5.1 -0.74,2.43 -3.39,8.7 -6.97,8.35 -8.63,-0.85 -7.55,-42.95 -10.25,-54.47 -0.7,-2.22 0.54,-4.59 2.76,-5.29 2.22,-0.7 4.59,0.54 5.29,2.76zm2.69 53.77c-0.07,-0.01 -0.13,-0.02 -0.19,0.03 0.04,0.01 0.11,0 0.19,-0.03zm-38.87 -12.02c0.65,-1.68 1.19,-3.03 0.17,-4.63 0.01,-0.04 0.01,-0.02 0.04,-0.06l-0.01 -0.02c-5.85,-0.78 -3.72,30.82 6.95,26.16 1.32,-0.58 3.4,-5.53 4.8,-7.69 -0.62,20.98 -17.28,10.15 -20.49,-1.71 -8.04,-29.72 22.97,-31.05 16.29,-8.76 -0.91,2.14 -3.38,3.15 -5.53,2.24 -2.14,-0.91 -3.15,-3.38 -2.24,-5.53zm-20.66 -3.46c-2.41,7.38 -3.24,14.12 2.25,20.14l-0.04 0.03 0.01 0.03c5.12,-2.32 5.22,-38.89 -8.33,-29.48 -0.18,-1.46 0.49,-2.55 1.74,-3.32 13.76,-8.42 23.05,39.37 6.49,39.41 -12.25,0.03 -12.45,-20.54 -10.03,-29.75 0.81,-2.18 3.23,-3.3 5.42,-2.49 2.18,0.81 3.3,3.24 2.49,5.42zm-17.65 5.39c-0.02,-0.04 -0.05,-0.08 -0.07,-0.12 -0,0.04 0.03,0.08 0.07,0.12z"/>
   <g>
    <path class="fil1" d="M24.65 35c-0.54,-3.61 1.95,-5.8 5.24,-4.72 0.59,0.19 0.6,0.66 0.77,1.18l-0 0c-0.34,-0.11 -0.31,-0.05 -0.51,-0.3 -0.68,-0.86 -4.87,-0.23 -3.96,3.36 0.13,0.43 -0.11,0.88 -0.53,1.01 -0.43,0.13 -0.88,-0.1 -1.01,-0.53z"/>
   </g>
   <path class="fil4" d="M25.42 34.76c-0.76,-2.45 1.03,-4.31 3.42,-4.27 1.9,0.04 1.07,0.39 1.82,0.97"/>
   <g>
    <path class="fil1" d="M20.4 57.17c-2.37,-3.86 -9.3,-5.33 -12.9,-2.43 -2.56,2.06 -2.87,2.72 -4.48,5.47l-0 -0c0.97,-3.16 1.34,-3.82 3.87,-6.14 4.14,-3.79 11.96,-2.15 14.95,2.35 0.21,0.39 0.05,0.88 -0.34,1.09 -0.39,0.21 -0.88,0.05 -1.09,-0.34z"/>
   </g>
   <path class="fil4" d="M21.12 56.8c-1.92,-3.67 -10.06,-5.97 -13.92,-2.39 -2.6,2.41 -2.89,2.67 -4.18,5.81"/>
   <g>
    <path class="fil1" d="M23.73 68.18c3.6,-1.76 17.87,-12.87 20.67,-11.52 0.98,0.47 0.97,2.46 0.86,3.32 -0.48,-2.36 -0.47,-3.37 -2.6,-2.55 -5.44,2.09 -12.73,9.48 -18.68,12.34 -0.44,0.07 -0.85,-0.23 -0.92,-0.67 -0.07,-0.44 0.23,-0.85 0.67,-0.92z"/>
   </g>
   <path class="fil4" d="M23.85 68.98c2.48,-0.39 19.65,-15.1 20.83,-11.61 0.43,1.28 0.57,1.15 0.57,2.62"/>
   <g>
    <path class="fil1" d="M55.95 56.91c-0.13,-1.76 -1.61,-4.92 -3.63,-3.29 -0.45,0.37 -0.24,0.24 -0.8,0.45 0.31,-0.74 0.71,-1.49 1.53,-1.73 2.53,-0.75 4.17,2.7 4.51,4.58 0,0.45 -0.36,0.81 -0.81,0.81 -0.45,0 -0.81,-0.36 -0.81,-0.81z"/>
   </g>
   <path class="fil4" d="M56.75 56.91c0,-2.52 -3.03,-5.69 -4.65,-3.45 -0.1,0.15 -0.44,0.45 -0.59,0.6"/>
   <g>
    <path class="fil1" d="M55.73 43.58c2.57,0.23 4.95,0.31 5.92,2.97 -2.41,-1.59 -2.86,-1.49 -5.92,-1.36 -0.45,0 -0.81,-0.36 -0.81,-0.81 0,-0.45 0.36,-0.81 0.81,-0.81z"/>
   </g>
   <path class="fil4" d="M55.73 44.39c1.99,0 4.62,0.03 5.92,2.16"/>
   <g>
    <path class="fil1" d="M84.38 52.43c-4,-2.56 -8.59,-2.18 -11.4,1.89 -0.12,0.18 -1.01,1.57 -1.44,1.33 1.09,-1.73 1.87,-3.59 3.68,-4.77 3.34,-2.17 6.87,-1.6 10.13,0.26 0.35,0.27 0.42,0.78 0.15,1.13 -0.27,0.35 -0.78,0.42 -1.13,0.15z"/>
   </g>
   <path class="fil4" d="M84.87 51.79c-3.27,-2.5 -9.27,-2.27 -11.89,1.97 -0.2,0.32 -0.96,1.83 -1.43,1.9"/>
   <g>
    <path class="fil1" d="M90.86 43.57c1.74,-0.71 5.46,-1.59 6,1.17 0.11,0.57 0.04,0.56 -0.14,1.13l-0.26 -0.52c-1.03,-2.18 -3.02,-1.35 -4.81,-0.36 -0.39,0.21 -0.88,0.07 -1.1,-0.32 -0.21,-0.39 -0.07,-0.88 0.32,-1.1z"/>
   </g>
   <path class="fil4" d="M91.25 44.28c2.05,-1.13 5.46,-1.61 5.46,1.59"/>
   <g>
    <path class="fil1" d="M93.25 34.46c1.7,-0.62 5.66,-0.86 5.86,1.39 -1.81,-0.88 -3.15,-1.01 -5.07,0.02 -0.39,0.22 -0.88,0.08 -1.1,-0.31 -0.22,-0.39 -0.08,-0.88 0.31,-1.1z"/>
   </g>
   <path class="fil4" d="M93.64 35.17c1.39,-0.77 4.62,-0.94 5.47,0.68"/>
   <g>
    <path class="fil1" d="M107.19 19.55c1.44,-4.52 7.24,-2.39 6.72,-1.01 -1.69,-1.11 -4.69,-1 -5.13,1.27 -0.07,0.44 -0.49,0.74 -0.93,0.66 -0.44,-0.07 -0.74,-0.49 -0.66,-0.93z"/>
   </g>
   <path class="fil4" d="M107.99 19.68c0.54,-3.21 5.68,-2.56 5.92,-1.14"/>
   <g>
    <path class="fil1" d="M130.02 27.81c4.21,-1.7 7.29,-3.67 11.88,-5.33 7.79,-2.82 12.53,-5.54 21.08,-6.69 1.41,-0.19 2.73,-0.7 3.41,-0.77 0.23,0.43 -3.27,1.24 -3.33,1.25 -8.67,1.79 -12.82,4.36 -20.7,7.44 -4.5,1.76 -7.62,3.83 -11.78,5.61 -0.42,0.16 -0.88,-0.06 -1.04,-0.48 -0.16,-0.42 0.06,-0.88 0.48,-1.04z"/>
   </g>
   <path class="fil4" d="M130.3 28.56c2.56,-0.95 6.97,-3.71 10.27,-4.9 4.22,-1.52 7.89,-3.14 11.98,-4.84 2.82,-1.17 8.65,-2.6 11.75,-3 0.01,-0 2.05,-0.67 2.09,-0.82"/>
   <g>
    <path class="fil1" d="M144.1 9.77c2.02,-4.16 7.46,-1.12 6.46,0.35 -1.35,-1.69 -4.26,-1.84 -4.92,0.13 -0.13,0.43 -0.59,0.66 -1.01,0.53 -0.43,-0.13 -0.66,-0.59 -0.53,-1.01z"/>
   </g>
   <path class="fil4" d="M144.87 10.01c0.9,-2.9 5.83,-1.66 5.69,0.11"/>
   <g>
    <path class="fil1" d="M124.01 44.23c2.24,-3.54 5.44,-7.26 10.2,-6.03 0.51,0.13 0.9,0.56 1.21,0.95 -0.61,-0.11 -0.9,-0.4 -1.27,-0.43 -4.45,-0.39 -6.83,2.84 -8.72,6.28 -0.21,0.39 -0.7,0.53 -1.09,0.32 -0.39,-0.21 -0.53,-0.7 -0.32,-1.09z"/>
   </g>
   <path class="fil4" d="M124.72 44.62c2.15,-3.93 4.87,-6.69 9.46,-6.16 0.35,0.04 0.93,0.55 1.24,0.69"/>
   <g>
    <path class="fil1" d="M164.63 33.92c2.88,-4.44 11.32,-4.08 11,-0.42l-0 -0.02c-0,0.16 0.36,0.82 0.44,1.01 -0.41,-0.16 -0.88,-0.56 -0.93,-1.04 -0.26,-2.79 -7.32,-1.92 -9.04,1.15 -0.19,0.4 -0.67,0.58 -1.07,0.39 -0.4,-0.19 -0.58,-0.67 -0.39,-1.07z"/>
   </g>
   <path class="fil4" d="M165.36 34.26c1.68,-3.61 10.32,-4.03 10.02,-0.79 -0.02,0.21 0.49,0.9 0.68,1.02"/>
   <path class="fil0" d="M64.57 31.75l2.87 0 0 7.9c0,0.67 0.26,1.23 0.79,1.66 0.53,0.44 1.14,0.66 1.86,0.66 0.68,0 1.28,-0.21 1.8,-0.61 0.52,-0.41 0.78,-0.93 0.78,-1.57l0 -8.03 2.87 0 0 13.46c0,0.89 -0.41,1.68 -1.25,2.37 -0.71,0.6 -1.47,0.95 -2.29,1.06 -0.38,0.08 -0.78,0.14 -1.2,0.18 -0.42,0.04 -0.85,0.06 -1.29,0.06 -0.4,0 -0.78,-0.03 -1.12,-0.08 -0.34,-0.05 -0.66,-0.14 -0.97,-0.26l0 -3c0.43,0.24 0.83,0.39 1.23,0.48 0.39,0.08 0.87,0.13 1.43,0.13 0.15,0 0.28,0 0.37,0 0.55,0 0.94,-0.03 1.16,-0.1 0.38,-0.11 0.66,-0.35 0.82,-0.7 0.12,-0.25 0.19,-0.49 0.19,-0.74 0,-0.13 -0.03,-0.31 -0.08,-0.54 -0.48,0.26 -0.95,0.43 -1.39,0.52 -0.44,0.09 -0.97,0.14 -1.57,0.14 -0.79,0 -1.45,-0.12 -1.99,-0.35 -0.54,-0.24 -1.09,-0.65 -1.64,-1.23 -0.48,-0.51 -0.83,-1.03 -1.05,-1.55 -0.22,-0.52 -0.33,-1.12 -0.33,-1.81l0 -8.04z"/>
  </g>
 </g>
</svg>
